<svg width="100" height="100" viewBox="0 0 100 100" fill="none" xmlns="http://www.w3.org/2000/svg">
<path d="M26.8958 13.9799C37.7939 -4.65994 62.2061 -4.65996 73.1042 13.9798L95.4498 52.1991C107.462 72.744 94.2878 100 72.3456 100H27.6544C5.7122 100 -7.46174 72.744 4.5502 52.1991L26.8958 13.9799Z" fill="#D9D9D9"/>
<path fill-rule="evenodd" clip-rule="evenodd" d="M49.679 74.3179C57.6575 74.3179 64.1253 67.0812 64.1253 58.1543C64.1253 49.2275 57.6575 41.9908 49.679 41.9908C41.7005 41.9908 35.2326 49.2275 35.2326 58.1543C35.2326 67.0812 41.7005 74.3179 49.679 74.3179ZM58.8978 54.3899C59.3818 55.6972 59.6309 57.0985 59.6309 58.5135H58.6678C58.6678 57.24 58.4436 55.9789 58.008 54.8022C57.5724 53.6256 56.934 52.5565 56.1291 51.6559C55.3242 50.7554 54.3687 50.041 53.317 49.5536C52.2654 49.0663 51.1383 48.8154 50 48.8154C48.8617 48.8154 47.7346 49.0663 46.683 49.5536C45.6313 50.041 44.6758 50.7554 43.8709 51.6559C43.066 52.5565 42.4276 53.6256 41.992 54.8022C41.5564 55.9789 41.3322 57.24 41.3322 58.5135H40.3691C40.3691 57.0985 40.6182 55.6972 41.1022 54.3899C41.5862 53.0825 42.2956 51.8946 43.1899 50.894C44.0842 49.8933 45.1459 49.0996 46.3144 48.5581C47.4829 48.0166 48.7353 47.7378 50 47.7378C51.2648 47.7378 52.5171 48.0166 53.6856 48.5581C54.8541 49.0996 55.9158 49.8933 56.8101 50.894C57.7044 51.8946 58.4138 53.0825 58.8978 54.3899Z" fill="black"/>
</svg>
