<svg width="101" height="100" viewBox="0 0 101 100" fill="none" xmlns="http://www.w3.org/2000/svg">
<path d="M27.0216 13.9799C37.9197 -4.65994 62.3319 -4.65996 73.23 13.9798L95.5756 52.1991C107.588 72.744 94.4136 100 72.4714 100H27.7802C5.83799 100 -7.33595 72.744 4.67599 52.1991L27.0216 13.9799Z" fill="#5E5E5E"/>
<path fill-rule="evenodd" clip-rule="evenodd" d="M49.8048 74.3179C57.7833 74.3179 64.2511 67.0812 64.2511 58.1543C64.2511 49.2275 57.7833 41.9908 49.8048 41.9908C41.8263 41.9908 35.3584 49.2275 35.3584 58.1543C35.3584 67.0812 41.8263 74.3179 49.8048 74.3179ZM59.0236 54.3899C59.5076 55.6972 59.7567 57.0985 59.7567 58.5135H58.7936C58.7936 57.24 58.5694 55.9789 58.1338 54.8022C57.6982 53.6256 57.0598 52.5565 56.2549 51.6559C55.45 50.7554 54.4945 50.041 53.4428 49.5536C52.3912 49.0663 51.2641 48.8154 50.1258 48.8154C48.9875 48.8154 47.8604 49.0663 46.8088 49.5536C45.7571 50.041 44.8016 50.7554 43.9967 51.6559C43.1918 52.5565 42.5534 53.6256 42.1178 54.8022C41.6822 55.9789 41.458 57.24 41.458 58.5135H40.4949C40.4949 57.0985 40.744 55.6972 41.228 54.3899C41.712 53.0825 42.4214 51.8946 43.3157 50.894C44.21 49.8933 45.2717 49.0996 46.4402 48.5581C47.6087 48.0166 48.861 47.7378 50.1258 47.7378C51.3905 47.7378 52.6429 48.0166 53.8114 48.5581C54.9799 49.0996 56.0416 49.8933 56.9359 50.894C57.8302 51.8946 58.5396 53.0825 59.0236 54.3899Z" fill="white"/>
</svg>
